G04 #@! TF.GenerationSoftware,KiCad,Pcbnew,(5.1.2-1)-1*
G04 #@! TF.CreationDate,2019-05-13T21:41:13-07:00*
G04 #@! TF.ProjectId,top_base,746f705f-6261-4736-952e-6b696361645f,rev?*
G04 #@! TF.SameCoordinates,Original*
G04 #@! TF.FileFunction,Profile,NP*
%FSLAX46Y46*%
G04 Gerber Fmt 4.6, Leading zero omitted, Abs format (unit mm)*
G04 Created by KiCad (PCBNEW (5.1.2-1)-1) date 2019-05-13 21:41:13*
%MOMM*%
%LPD*%
G04 APERTURE LIST*
%ADD10C,0.200000*%
G04 APERTURE END LIST*
D10*
X130295625Y-122720000D02*
X130295625Y-87720000D01*
X130295625Y-122720000D02*
X165295625Y-122720000D01*
X163290000Y-109220000D02*
G75*
G02X161290000Y-109220000I-1000000J0D01*
G01*
X163290000Y-109220000D02*
X163290000Y-101220000D01*
X143795626Y-91725625D02*
G75*
G02X143795626Y-89725625I0J1000000D01*
G01*
X151795625Y-91725625D02*
X143795626Y-91725625D01*
X151795625Y-89725625D02*
G75*
G02X151795625Y-91725625I0J-1000000D01*
G01*
X151795625Y-89725625D02*
X143795626Y-89725625D01*
X134301250Y-109220001D02*
G75*
G02X132301250Y-109220001I-1000000J0D01*
G01*
X134301250Y-101220000D02*
X134301250Y-109220001D01*
X165295625Y-122720000D02*
X165295625Y-87720000D01*
X132301250Y-101220000D02*
G75*
G02X134301250Y-101220000I1000000J0D01*
G01*
X132301250Y-101220000D02*
X132301250Y-109220001D01*
X130295625Y-87720000D02*
X165295625Y-87720000D01*
X143795626Y-120714375D02*
X151795625Y-120714375D01*
X151795625Y-118714375D02*
G75*
G02X151795625Y-120714375I0J-1000000D01*
G01*
X143795626Y-118714376D02*
X151795625Y-118714376D01*
X143795626Y-120714374D02*
G75*
G02X143795626Y-118714376I0J999999D01*
G01*
X161290000Y-101220000D02*
G75*
G02X163290000Y-101220000I1000000J0D01*
G01*
X161290000Y-109220000D02*
X161290000Y-101220000D01*
X106770001Y-121184375D02*
X114770000Y-121184375D01*
X114770000Y-119184375D02*
G75*
G02X114770000Y-121184375I0J-1000000D01*
G01*
X124264375Y-109690000D02*
X124264375Y-101690000D01*
X97275625Y-109690001D02*
G75*
G02X95275625Y-109690001I-1000000J0D01*
G01*
X97275625Y-101690000D02*
X97275625Y-109690001D01*
X93270000Y-88190000D02*
X128270000Y-88190000D01*
X114770000Y-90195625D02*
G75*
G02X114770000Y-92195625I0J-1000000D01*
G01*
X126264375Y-109690000D02*
X126264375Y-101690000D01*
X106770001Y-119184376D02*
X114770000Y-119184376D01*
X106770001Y-92195625D02*
G75*
G02X106770001Y-90195625I0J1000000D01*
G01*
X93270000Y-123190000D02*
X128270000Y-123190000D01*
X95275625Y-101690000D02*
G75*
G02X97275625Y-101690000I1000000J0D01*
G01*
X124264375Y-101690000D02*
G75*
G02X126264375Y-101690000I1000000J0D01*
G01*
X106770001Y-121184374D02*
G75*
G02X106770001Y-119184376I0J999999D01*
G01*
X95275625Y-101690000D02*
X95275625Y-109690001D01*
X114770000Y-90195625D02*
X106770001Y-90195625D01*
X114770000Y-92195625D02*
X106770001Y-92195625D01*
X126264375Y-109690000D02*
G75*
G02X124264375Y-109690000I-1000000J0D01*
G01*
X93270000Y-123190000D02*
X93270000Y-88190000D01*
X128270000Y-123190000D02*
X128270000Y-88190000D01*
M02*
